<?xml version="1.0" encoding="UTF-8"?>
<svg id="Capa_2" data-name="Capa 2" xmlns="http://www.w3.org/2000/svg" viewBox="0 0 125.49 118.75">
  <defs>
    <style>
      .cls-1 {
        fill-rule: evenodd;
      }

      .cls-1, .cls-2 {
        fill: #0033c9;
      }
    </style>
  </defs>
  <g id="Capa_1-2" data-name="Capa 1">
    <path class="cls-1" d="m70.19,51.49c-.04-2.91.07-5.82.34-8.72.26-1.99,2.66-2,3.91-.56,4.96,6.58,9.55,13.43,13.76,20.51,0,0-8.28,8.68-11.11,11.46-2.83,2.78-9,10-12.04,7.04-1.48-1.43.68-7.12.68-7.12,0,0-6.78-1.28-8.28,5.32-1.49,6.59,4.94,9.83,9.68,7.27,7.32-3.97,22.96-21.41,22.9-21.34,3.36,4.22,13.7,24.19,20.46,21.79,5.64-1.98,5.37-12.45,1.84-15.88-1.01-.97-1.27.07-1.11.54.64,1.45.83,3.06.56,4.62-.44,1.79-1.39,3.34-3.73,2.85-2.19-.45-11.06-15.06-13.16-18.95,0,0,14.01-15.32,19.33-18.34,5.41-3.07,6.08-.68,5.75.82-.31,1.6-1.06,3.08-2.17,4.27,0,0,5.34,2.82,7.27-4.65,1.79-6.98-2.51-9.92-5.71-8.31-7.77,3.83-26.27,24.04-26.43,23.97-4.03-5.64-13.86-23.44-20.23-24.49-5.1-.84-6.52,5.17-6.62,7.57-.1,2.4.67,9.43,4.12,10.33"/>
    <path class="cls-1" d="m31.64,39.07h0c.68-2.45,2.93-4.13,5.47-4.1h7.42s6.84-25.01,14.39-31.27c5.48-4.55,13.27-4.65,16.78-1.64,4.66,4,2.41,9.71-3.6,8-2.38-.67-1.66-4.62-4.49-5.87-.59-.3-1.22-.51-1.88-.61-.86-.1-1.73.05-2.51.43-5,2.22-9.54,19.39-12.32,31.04h10.63c-.73,2.42-2.96,4.09-5.5,4.09-2.83.03-6.04.04-6.14-.06-.33,1.24-4.74,24.3-7.89,35.37-3.98,13.95-10.3,33.69-18.82,40.39-8.91,7.01-17.13,3-18.76.44-.99-1.55-.86-4.85.62-6,2.6-1.98,6.52-.38,7.86,2.14,3.35,6.36,8.29,3.43,12.17-5.72,4.34-10.26,6.14-17.79,9.23-29.51,2.55-9.68,7.92-30.91,8.87-37.1h-11.52Z"/>
    <path class="cls-2" d="m12.45,23.92c-.19-1.22.17-2.45.98-3.38.77-.96,1.94-1.51,3.17-1.49,1.22,0,2.4.47,3.3,1.3.91.74,1.52,1.8,1.7,2.97.21,1.4-.17,2.83-1.06,3.94-.55.69-1.69,1.03-3.4,1.03-1.14,0-2.23-.42-3.07-1.18-.92-.83-1.49-1.96-1.62-3.19m2.35,16.05c-.69-.03-1.37.04-2.04.2-1.49.8-2.89,1.75-4.17,2.84-1.83,1.61-3.47,3.43-4.87,5.42l-3.72.86c2.43-4.28,5.76-7.98,9.76-10.85,3.77-2.62,6.85-3.93,9.22-3.93.87-.05,1.72.22,2.4.76.58.5.95,1.2,1.04,1.96.31,2.18-.43,5.79-2.21,10.85-.23.62-.74,2.22-1.53,4.79-1.78,5.61-3.86,11.12-6.23,16.51-.74,1.69-1.53,3.69-2.36,5.99-.45,1.24-.86,2.29-1.23,3.13-1.04,2.36-1.49,4.11-1.33,5.24.13.7.73,1.21,1.44,1.23.76-.1,1.48-.37,2.11-.8,1.96-1.23,3.75-2.71,5.33-4.41,2.04-2.09,3.76-4.47,5.1-7.07h2.93c-1.3,2.89-2.89,5.64-4.76,8.2-2.07,2.99-4.74,5.52-7.84,7.41-1.88,1.28-4.07,2.01-6.34,2.11-1.19.08-2.38-.24-3.38-.9-.76-.57-1.25-1.42-1.36-2.36-.48-3.41,1.12-9.85,4.82-19.31l7.89-20.25c.66-1.61,1.21-3.26,1.64-4.94.14-.5.2-1.01.19-1.53-.11-.42-.28-.82-.5-1.2"/>
  </g>
</svg>